<svg width="4" height="6" viewBox="0 0 4 6" fill="none" xmlns="http://www.w3.org/2000/svg">
<path d="M3.12175 0.0012484L2.34368 0C1.46955 0 0.904653 0.57957 0.904653 1.47661V2.15742H0.122343C0.0547424 2.15742 0 2.21223 0 2.27983V3.26625C0 3.33385 0.0548048 3.3886 0.122343 3.3886H0.904653V5.87766C0.904653 5.94526 0.959396 6 1.027 6H2.04769C2.11529 6 2.17003 5.9452 2.17003 5.87766V3.3886H3.08474C3.15234 3.3886 3.20708 3.33385 3.20708 3.26625L3.20745 2.27983C3.20745 2.24737 3.19453 2.21629 3.17162 2.19331C3.14872 2.17034 3.11751 2.15742 3.08505 2.15742H2.17003V1.58029C2.17003 1.30289 2.23614 1.16207 2.59748 1.16207L3.12163 1.16189C3.18916 1.16189 3.24391 1.10708 3.24391 1.03954V0.123592C3.24391 0.0561156 3.18923 0.00137324 3.12175 0.0012484Z" fill="white"/>
</svg>
