<svg width="4" height="4" viewBox="0 0 4 4" fill="none" xmlns="http://www.w3.org/2000/svg">
<path d="M2.75 0H1.25C0.55975 0 0 0.55975 0 1.25V2.75C0 3.44025 0.55975 4 1.25 4H2.75C3.44025 4 4 3.44025 4 2.75V1.25C4 0.55975 3.44025 0 2.75 0ZM3.625 2.75C3.625 3.2325 3.2325 3.625 2.75 3.625H1.25C0.7675 3.625 0.375 3.2325 0.375 2.75V1.25C0.375 0.7675 0.7675 0.375 1.25 0.375H2.75C3.2325 0.375 3.625 0.7675 3.625 1.25V2.75Z" fill="#171721"/>
<path d="M2 1C1.44775 1 1 1.44775 1 2C1 2.55225 1.44775 3 2 3C2.55225 3 3 2.55225 3 2C3 1.44775 2.55225 1 2 1ZM2 2.625C1.6555 2.625 1.375 2.3445 1.375 2C1.375 1.65525 1.6555 1.375 2 1.375C2.3445 1.375 2.625 1.65525 2.625 2C2.625 2.3445 2.3445 2.625 2 2.625Z" fill="#171721"/>
<path d="M3.07505 1.05825C3.14864 1.05825 3.2083 0.99859 3.2083 0.924998C3.2083 0.851406 3.14864 0.791748 3.07505 0.791748C3.00146 0.791748 2.9418 0.851406 2.9418 0.924998C2.9418 0.99859 3.00146 1.05825 3.07505 1.05825Z" fill="#171721"/>
</svg>
