<svg width="5" height="5" viewBox="0 0 5 5" fill="none" xmlns="http://www.w3.org/2000/svg">
<path d="M1.11812 1.5625H0V5H1.11812V1.5625Z" fill="#171721"/>
<path d="M4.16375 1.60281C4.15188 1.59906 4.14062 1.595 4.12812 1.59156C4.11313 1.58812 4.09812 1.58531 4.08281 1.58281C4.02344 1.57094 3.95844 1.5625 3.88219 1.5625C3.23031 1.5625 2.81687 2.03656 2.68062 2.21969V1.5625H1.5625V5H2.68062V3.125C2.68062 3.125 3.52563 1.94813 3.88219 2.8125C3.88219 3.58406 3.88219 5 3.88219 5H5V2.68031C5 2.16094 4.64406 1.72813 4.16375 1.60281Z" fill="#171721"/>
<path d="M0.546875 1.09375C0.848906 1.09375 1.09375 0.848906 1.09375 0.546875C1.09375 0.244844 0.848906 0 0.546875 0C0.244844 0 0 0.244844 0 0.546875C0 0.848906 0.244844 1.09375 0.546875 1.09375Z" fill="#171721"/>
</svg>
