<svg width="67" height="27" viewBox="0 0 67 27" fill="none" xmlns="http://www.w3.org/2000/svg">
<path fill-rule="evenodd" clip-rule="evenodd" d="M21.1574 0.297363C22.3259 0.297363 23.2731 1.24461 23.2731 2.41311V9.90621C23.1039 9.84161 22.9203 9.80623 22.7283 9.80623H15.2954C14.4514 9.80623 13.7672 10.4904 13.7672 11.3344C13.7672 12.1785 14.4514 12.8627 15.2954 12.8627H22.7283C22.9202 12.8627 23.1039 12.8273 23.2731 12.7627V14.8102C23.2731 21.2369 18.0633 26.4468 11.6366 26.4468C5.20987 26.4468 0 21.2369 0 14.8102V13.3721C0 6.15111 5.85375 0.297363 13.0747 0.297363H21.1574Z" fill="#FE3C51"/>
<path d="M33.6458 9.71063C34.763 9.72682 35.724 10.0263 36.5286 10.6091C37.3411 11.1837 37.9349 11.981 38.3099 13.0009C38.6927 14.0126 38.8294 15.1377 38.7201 16.3761C38.5404 18.4643 37.8372 20.156 36.6107 21.451C35.3919 22.738 33.8841 23.3653 32.0872 23.3329C30.9857 23.3167 30.0326 23.0253 29.2279 22.4587C28.4232 21.8841 27.8294 21.0908 27.4466 20.0791C27.0638 19.0673 26.9271 17.9504 27.0365 16.7282C27.2396 14.559 27.9505 12.8349 29.1693 11.5561C30.388 10.2772 31.8802 9.66207 33.6458 9.71063ZM30.306 17.9787C30.3216 18.7557 30.4974 19.3709 30.8333 19.8241C31.1693 20.2693 31.6419 20.5 32.2513 20.5162C33.2669 20.5485 34.0638 20.0669 34.6419 19.0714C35.2201 18.0677 35.4896 16.7524 35.4505 15.1255C35.4193 14.3485 35.2357 13.7293 34.8997 13.268C34.5716 12.7985 34.099 12.5557 33.4818 12.5395C32.4974 12.5071 31.7083 12.9887 31.1146 13.9843C30.5286 14.9718 30.2591 16.3032 30.306 17.9787Z" fill="#191C51"/>
<path d="M51.8685 16.5582C51.6341 18.6303 51.0247 20.2895 50.0404 21.536C49.056 22.7825 47.7826 23.3855 46.2201 23.345C44.8841 23.3127 43.8685 22.7542 43.1732 21.6696L42.6927 23.0901H39.681L42.7982 4.44142L43.1732 4.44141L44.8372 11.1554C45.7279 10.1598 46.7591 9.67825 47.931 9.71063C49.1576 9.72682 50.1185 10.1841 50.8138 11.0826C51.5169 11.9729 51.8919 13.2073 51.9388 14.7856C51.9544 15.2874 51.931 15.8783 51.8685 16.5582ZM48.5872 16.3032C48.6576 15.6152 48.681 15.081 48.6576 14.7006C48.5716 13.2922 48.0091 12.5759 46.9701 12.5516C45.9935 12.5193 45.1849 12.9766 44.5443 13.9236L43.6302 19.1442C43.9271 20.0184 44.5599 20.4716 45.5286 20.504C47.1536 20.5526 48.1497 19.3304 48.5169 16.8374L48.5872 16.3032Z" fill="#191C51"/>
<path d="M60.9258 9.71063C62.043 9.72682 63.0039 10.0263 63.8086 10.6091C64.6211 11.1837 65.2148 11.981 65.5898 13.0009C65.9727 14.0126 66.1094 15.1377 66 16.3761C65.8203 18.4643 65.1172 20.156 63.8906 21.451C62.6719 22.738 61.1641 23.3653 59.3672 23.3329C58.2656 23.3167 57.3125 23.0253 56.5078 22.4587C55.7031 21.8841 55.1094 21.0908 54.7266 20.0791C54.3438 19.0673 54.207 17.9504 54.3164 16.7282C54.5195 14.559 55.2305 12.8349 56.4492 11.5561C57.668 10.2772 59.1602 9.66207 60.9258 9.71063ZM57.5859 17.9787C57.6016 18.7557 57.7773 19.3709 58.1133 19.8241C58.4492 20.2693 58.9219 20.5 59.5312 20.5162C60.5469 20.5485 61.3438 20.0669 61.9219 19.0714C62.5 18.0677 62.7695 16.7524 62.7305 15.1255C62.6992 14.3485 62.5156 13.7293 62.1797 13.268C61.8516 12.7985 61.3789 12.5557 60.7617 12.5395C59.7773 12.5071 58.9883 12.9887 58.3945 13.9843C57.8086 14.9718 57.5391 16.3032 57.5859 17.9787Z" fill="#191C51"/>
</svg>
