<svg width="9" height="9" viewBox="0 0 9 9" fill="none" xmlns="http://www.w3.org/2000/svg">
<path d="M6.84244 5.95373C6.5484 5.66344 6.18132 5.66344 5.88916 5.95373C5.66629 6.17473 5.44342 6.39572 5.22429 6.62047C5.16436 6.68227 5.1138 6.69538 5.04075 6.65418C4.89654 6.57552 4.74297 6.51184 4.60438 6.42569C3.95825 6.01928 3.41699 5.49675 2.93754 4.90868C2.69969 4.61651 2.48805 4.30375 2.3401 3.95165C2.31013 3.88048 2.31575 3.83366 2.37381 3.7756C2.59668 3.56022 2.81393 3.33923 3.03305 3.11823C3.33833 2.81108 3.33833 2.45149 3.03118 2.14247C2.85701 1.96642 2.68283 1.79412 2.50866 1.61807C2.32886 1.43828 2.15094 1.25661 1.96927 1.07869C1.67524 0.792143 1.30816 0.792143 1.01599 1.08056C0.791248 1.30156 0.57587 1.52818 0.347382 1.74543C0.135749 1.94582 0.0289967 2.19117 0.00652245 2.47771C-0.0290618 2.94405 0.0851823 3.38417 0.246248 3.81306C0.57587 4.70079 1.0778 5.48926 1.68647 6.21218C2.50866 7.18981 3.49003 7.9633 4.63809 8.52141C5.155 8.77238 5.69064 8.96528 6.27309 8.99712C6.67388 9.01959 7.02223 8.91846 7.30129 8.60569C7.49232 8.39219 7.7077 8.19741 7.90997 7.99327C8.20962 7.68987 8.2115 7.32279 7.91371 7.02313C7.55787 6.66541 7.20016 6.30957 6.84244 5.95373Z" fill="#595954"/>
<path d="M6.48473 4.46129L7.17582 4.3433C7.06719 3.70841 6.76753 3.13344 6.31243 2.67646C5.83111 2.19514 5.22243 1.89174 4.55195 1.7981L4.45456 2.49292C4.97334 2.56597 5.4453 2.80007 5.818 3.17277C6.17009 3.52487 6.40045 3.97061 6.48473 4.46129Z" fill="#595954"/>
<path d="M7.5654 1.45708C6.76756 0.659245 5.75809 0.155447 4.64374 0L4.54636 0.694829C5.509 0.829674 6.38175 1.26605 7.07096 1.95339C7.72459 2.60701 8.15347 3.43294 8.30892 4.34128L9 4.22329C8.81834 3.17074 8.32203 2.21559 7.5654 1.45708Z" fill="#595954"/>
</svg>
