<svg width="6" height="6" viewBox="0 0 6 6" fill="none" xmlns="http://www.w3.org/2000/svg">
<path d="M1.79445 5.10522C3.94772 5.10522 5.12525 3.14126 5.12525 1.43825C5.12525 1.38247 5.1242 1.32692 5.12193 1.27168C5.35049 1.08974 5.54914 0.862703 5.70588 0.60428C5.49614 0.706965 5.27037 0.775998 5.03362 0.80723C5.27529 0.647613 5.46086 0.395221 5.54837 0.0943491C5.32219 0.241981 5.07169 0.349238 4.80503 0.407169C4.59141 0.156659 4.28724 0 3.95048 0C3.30403 0 2.77975 0.577158 2.77975 1.28862C2.77975 1.38981 2.79005 1.48815 2.81011 1.5825C1.83716 1.5286 0.974377 1.01579 0.397057 0.23595C0.296563 0.426377 0.238569 0.647651 0.238569 0.883755C0.238569 1.33084 0.445246 1.72564 0.7595 1.95651C0.567444 1.95002 0.387043 1.89198 0.229323 1.79536C0.229148 1.80078 0.229148 1.80604 0.229148 1.8118C0.229148 2.43598 0.632661 2.95713 1.16839 3.07522C1.06999 3.10469 0.966456 3.12055 0.859681 3.12055C0.78438 3.12055 0.710963 3.11241 0.63964 3.09731C0.788671 3.60939 1.22087 3.98202 1.73325 3.99247C1.33256 4.33822 0.827822 4.54416 0.279256 4.54416C0.184903 4.54416 0.0916313 4.53821 0 4.5263C0.518104 4.8919 1.13332 5.10526 1.79449 5.10526" fill="#171721"/>
</svg>
