<svg width="19" height="19" viewBox="0 0 19 19" fill="none" xmlns="http://www.w3.org/2000/svg">
<path d="M15.8345 3.1699C16.4101 3.16773 16.9118 2.77762 17.0558 2.22026H19V1.58717H17.0558C16.9118 1.02981 16.4101 0.639704 15.8345 0.637528C15.1352 0.637528 14.5683 1.20442 14.5683 1.90371C14.5694 2.12906 14.6314 2.34989 14.7478 2.54282L14.1916 3.09899C11.5305 -0.368022 6.56259 -1.0213 3.09558 1.63987C-0.37144 4.30104 -1.02471 9.26896 1.63645 12.736C4.14841 16.0086 8.75302 16.8024 12.2158 14.5599L13.1711 15.5152L13.6187 15.9628L16.1669 18.511C16.815 19.1591 17.8657 19.1591 18.5138 18.511C19.1619 17.8629 19.1619 16.8122 18.5138 16.1641L15.9656 13.6159L15.518 13.1683L14.5626 12.213C16.2585 9.60086 16.2585 6.23538 14.5626 3.6232L15.1957 2.9901C15.3885 3.10651 15.6093 3.16864 15.8345 3.1699ZM15.8345 1.27062C16.1842 1.27062 16.4676 1.55405 16.4676 1.90371C16.4676 2.25338 16.1842 2.53681 15.8345 2.53681C15.4849 2.53681 15.2014 2.25338 15.2014 1.90371C15.2014 1.55405 15.4849 1.27062 15.8345 1.27062ZM18.0662 16.6117C18.4716 17.0081 18.479 17.658 18.0827 18.0634C17.6864 18.4688 17.0364 18.4762 16.631 18.0799C16.6254 18.0745 16.62 18.069 16.6145 18.0634L14.0663 15.5152L15.518 14.0635L18.0662 16.6117ZM15.0704 13.6159L13.6187 15.0676L12.7425 14.1914C12.7871 14.1572 12.8289 14.1196 12.8729 14.0844C12.9169 14.0493 12.9679 14.0072 13.015 13.9676C13.0844 13.9094 13.1527 13.8505 13.2198 13.79C13.2543 13.7584 13.2873 13.7267 13.3211 13.6951C13.4509 13.5735 13.5766 13.4479 13.6981 13.3181C13.7298 13.2842 13.7615 13.2513 13.7931 13.2168C13.8536 13.1497 13.9124 13.0813 13.9707 13.012C14.0104 12.9651 14.0493 12.9178 14.0875 12.8698C14.1223 12.8262 14.16 12.7844 14.1942 12.7397L15.0704 13.6159ZM13.8428 12.1456C13.7431 12.2849 13.6402 12.4213 13.5316 12.5527C13.5 12.591 13.4661 12.628 13.4335 12.6657C13.3367 12.7784 13.2366 12.8877 13.1334 12.9936C13.0885 13.04 13.0428 13.0857 12.9964 13.1307C12.8908 13.2339 12.7815 13.3339 12.6684 13.4308C12.6308 13.4624 12.5937 13.4969 12.5554 13.5289C12.424 13.6375 12.2876 13.7403 12.1483 13.8401C8.87144 16.1811 4.31717 15.4225 1.97611 12.1456C-0.364951 8.86869 0.393693 4.31442 3.67058 1.97335C6.94747 -0.367706 11.5017 0.390899 13.8428 3.66783C15.6543 6.20345 15.6543 9.60997 13.8428 12.1456Z" fill="#40A3FF"/>
</svg>
