<svg width="20" height="20" viewBox="0 0 20 20" fill="none" xmlns="http://www.w3.org/2000/svg">
<path d="M17.6664 2.33403H13.6332C12.7165 0.328402 10.3476 -0.554355 8.34192 0.362276C7.46908 0.761218 6.76911 1.46119 6.37017 2.33403H2.33366C1.22958 2.33511 0.334824 3.22987 0.33374 4.33395V14.6669C0.334824 15.771 1.22958 16.6657 2.33366 16.6668H7.53812L7.09314 18.0001H3.33362C2.78135 18.0001 2.33366 18.4478 2.33366 19C2.33366 19.5523 2.78135 20 3.33362 20H16.6664C17.2187 20 17.6664 19.5523 17.6664 19C17.6664 18.4478 17.2187 18.0001 16.6664 18.0001H12.9069L12.4619 16.6668H17.6664C18.7705 16.6657 19.6652 15.771 19.6663 14.6669V4.33395C19.6652 3.22991 18.7704 2.33516 17.6664 2.33403ZM10 0.66743C11.8409 0.66743 13.3332 2.15975 13.3332 4.00063C13.3332 5.84152 11.8409 7.33383 10 7.33383C8.15914 7.33383 6.66682 5.84152 6.66682 4.00063C6.66882 2.16062 8.15997 0.669472 10 0.66743ZM16.6664 18.6667C16.8505 18.6667 16.9997 18.816 16.9997 19C16.9997 19.1841 16.8505 19.3334 16.6664 19.3334H3.33362C3.14955 19.3334 3.0003 19.1841 3.0003 19C3.0003 18.816 3.14955 18.6667 3.33362 18.6667H16.6664ZM7.79611 18.0001L8.24109 16.6668H11.759L12.2033 18.0001H7.79611ZM18.9997 14.6669C18.9997 15.4032 18.4027 16.0002 17.6664 16.0002H2.33366C1.59732 16.0002 1.00038 15.4032 1.00038 14.6669V14.0002H18.9997V14.6669ZM18.9997 13.3336H1.00038V4.33395C1.00038 3.59761 1.59732 3.00067 2.33366 3.00067H6.13351C5.84265 4.09642 6.03689 5.26429 6.66682 6.20688V8.42679L5.25421 8.89777C5.00926 8.20784 4.25142 7.8471 3.56149 8.09205C2.87156 8.337 2.51082 9.09485 2.75577 9.78478C3.00072 10.4747 3.75856 10.8354 4.44849 10.5905C4.89473 10.4321 5.22255 10.0477 5.30854 9.58208L7.10547 8.9821C7.24117 8.93689 7.33292 8.81015 7.33346 8.66711V6.97351C7.80907 7.40141 8.38071 7.70848 9.00006 7.86881V9.82207L8.40009 10.2221C7.77295 9.79453 6.91798 9.95635 6.49045 10.5835C6.06293 11.2106 6.22476 12.0656 6.8519 12.4931C7.47904 12.9207 8.33401 12.7588 8.76153 12.1317C9.0461 11.7142 9.07868 11.1743 8.84636 10.7257L9.51833 10.2777C9.61104 10.2159 9.66666 10.1118 9.66666 10.0004V7.98347C9.77699 7.99281 9.88732 8.00047 9.99998 8.00047C10.1126 8.00047 10.223 7.99281 10.3333 7.98347V9.33375C10.3333 9.44516 10.3889 9.54924 10.4816 9.61108L11.1536 10.0591C11.054 10.2463 11.0013 10.455 10.9999 10.667C10.9977 11.4056 11.5946 12.0061 12.3332 12.0084C13.0717 12.0106 13.6723 11.4137 13.6745 10.6751C13.6768 9.93656 13.0798 9.33604 12.3413 9.33379C12.0777 9.333 11.8198 9.41008 11.5999 9.55541L10.9999 9.15543V7.86881C11.6193 7.70848 12.1909 7.40141 12.6665 6.97351V8.33379C12.6665 8.46012 12.7379 8.57566 12.8509 8.63211L14.6885 9.55074C14.8102 10.2751 15.4961 10.7636 16.2204 10.6419C16.9448 10.5201 17.4333 9.83423 17.3116 9.10989C17.1898 8.38554 16.5039 7.89702 15.7796 8.01876C15.3197 8.09605 14.9339 8.40858 14.7628 8.84244L13.3332 8.1278V6.20688C13.9637 5.26458 14.1586 4.09663 13.8682 3.00067H17.6663C18.4027 3.00067 18.9996 3.59761 18.9996 4.33395V13.3336H18.9997ZM4.6669 9.33375C4.6669 9.70195 4.36846 10.0004 4.00026 10.0004C3.63207 10.0004 3.33362 9.70195 3.33362 9.33375C3.33362 8.96556 3.63207 8.66711 4.00026 8.66711C4.36846 8.66711 4.6669 8.9656 4.6669 9.33375ZM8.33342 11.3337C8.33342 11.7019 8.03498 12.0003 7.66678 12.0003C7.29859 12.0003 7.00014 11.7019 7.00014 11.3337C7.00014 10.9655 7.29859 10.667 7.66678 10.667C8.03498 10.667 8.33342 10.9655 8.33342 11.3337ZM11.6666 10.667C11.6666 10.2988 11.9651 10.0004 12.3333 10.0004C12.7015 10.0004 12.9999 10.2988 12.9999 10.667C12.9999 11.0352 12.7015 11.3337 12.3333 11.3337C11.9651 11.3337 11.6666 11.0352 11.6666 10.667ZM15.3331 9.33375C15.3331 8.96556 15.6316 8.66711 15.9998 8.66711C16.368 8.66711 16.6664 8.96556 16.6664 9.33375C16.6664 9.70195 16.368 10.0004 15.9998 10.0004C15.6316 10.0004 15.3331 9.70195 15.3331 9.33375Z" fill="#FE3C51"/>
</svg>
