<svg width="19" height="20" viewBox="0 0 19 20" fill="none" xmlns="http://www.w3.org/2000/svg">
<path d="M18.3547 10.2668L15.1588 7.07093C15.8498 6.07892 15.7539 4.70131 14.8698 3.8172C14.389 3.3364 13.7497 3.07159 13.0698 3.07159C12.5421 3.07159 12.0393 3.23169 11.6157 3.52782L8.42018 0.332305C8.31462 0.226738 8.16364 0.180424 8.01706 0.208949C7.87052 0.23734 7.74766 0.336662 7.68922 0.473988L3.32817 10.7166L0.962 13.0828C0.34163 13.7032 0 14.5281 0 15.4054C0 16.2828 0.34163 17.1076 0.962045 17.728C1.58241 18.3484 2.40727 18.69 3.28459 18.69C4.16196 18.69 4.98677 18.3484 5.60714 17.728L5.99149 17.3436L8.51627 19.8684C8.604 19.9561 8.71896 20 8.83391 20C8.94887 20 9.06387 19.9561 9.15156 19.8684L10.877 18.1429C11.0525 17.9675 11.0525 17.683 10.877 17.5076L8.50581 15.1363L18.2133 10.9977C18.3505 10.9392 18.4498 10.8163 18.4781 10.6698C18.5064 10.5233 18.4602 10.3723 18.3547 10.2668ZM13.0698 3.97012C13.5098 3.97012 13.9234 4.14145 14.2345 4.45258C14.7666 4.98463 14.8574 5.79304 14.5078 6.41993L12.2667 4.17882C12.5094 4.04284 12.7839 3.97012 13.0698 3.97012ZM4.97181 17.0926C4.52111 17.5433 3.9219 17.7916 3.28455 17.7916C2.6472 17.7916 2.04798 17.5434 1.59728 17.0926C1.14663 16.6419 0.898436 16.0428 0.898436 15.4054C0.898436 14.7681 1.14663 14.1688 1.59733 13.7181L3.70739 11.608L3.77172 11.6724L7.08174 14.9828L4.97181 17.0926ZM9.92412 17.8252L8.83387 18.9154L6.62677 16.7083L7.71698 15.6181L9.92412 17.8252ZM15.49 11.182C15.4819 11.1724 15.4736 11.1629 15.4646 11.154L9.77444 5.46377C9.59902 5.28839 9.31458 5.28839 9.13911 5.46377C8.96369 5.63918 8.96369 5.92363 9.13911 6.09909L14.601 11.561L7.82129 14.4514L4.23949 10.8696L8.25528 1.43805L17.2492 10.4319L15.49 11.182Z" fill="#FE3C51"/>
</svg>
