<svg width="20" height="20" viewBox="0 0 20 20" fill="none" xmlns="http://www.w3.org/2000/svg">
<path d="M19.6579 14.4662L18.6838 13.4921C18.6837 13.492 18.6836 13.492 18.6836 13.4919C18.6835 13.4919 18.6834 13.4918 18.6834 13.4917L17.1617 11.9701C17.1616 11.97 17.1616 11.97 17.1615 11.9699C17.1615 11.9698 17.1614 11.9698 17.1613 11.9697L14.3574 9.16576L18.6238 4.89937C18.8959 4.62726 19.0457 4.2655 19.0457 3.8807C19.0457 3.49589 18.8959 3.13414 18.6238 2.86203L17.1389 1.37715C16.8668 1.10504 16.505 0.955194 16.1202 0.955194C15.7354 0.955194 15.3736 1.10504 15.1015 1.37715L10.8352 5.64351L8.0294 2.83773L6.50694 1.31527C6.5069 1.31523 6.50686 1.31519 6.50682 1.31515C6.50678 1.31511 6.50675 1.31508 6.50671 1.31504L5.53468 0.343007C5.07925 -0.112422 4.33823 -0.112344 3.88288 0.343007L0.342109 3.88378C0.121484 4.10441 0 4.39773 0 4.70972C0 5.02171 0.121484 5.31503 0.342109 5.53561L5.64257 10.8361L3.58581 12.8929C3.553 12.9257 3.52636 12.964 3.50699 13.0062L0.989842 18.4931C0.921717 18.6416 0.953201 18.8168 1.06867 18.9322C1.14355 19.0071 1.24351 19.0467 1.345 19.0467C1.40004 19.0467 1.45554 19.035 1.50777 19.0111L6.99475 16.494C7.0369 16.4746 7.0753 16.4479 7.10807 16.4151L9.16483 14.3584L10.8442 16.0377C10.9205 16.114 11.0204 16.1522 11.1204 16.1522C11.2204 16.1522 11.3203 16.114 11.3966 16.0377C11.5492 15.8852 11.5492 15.6379 11.3966 15.4853L9.71725 13.8059L13.8049 9.71819L14.8108 10.7241L14.4374 11.0975C14.2849 11.2501 14.2849 11.4974 14.4374 11.65C14.5137 11.7263 14.6136 11.7644 14.7136 11.7644C14.8136 11.7644 14.9135 11.7263 14.9898 11.65L15.3633 11.2765L16.3329 12.2462L15.217 13.362C15.0644 13.5146 15.0644 13.7619 15.217 13.9145C15.2933 13.9908 15.3932 14.0289 15.4932 14.0289C15.5931 14.0289 15.6931 13.9907 15.7694 13.9145L16.8853 12.7986L17.8549 13.7682L17.4815 14.1416C17.3289 14.2942 17.3289 14.5415 17.4815 14.6941C17.5577 14.7704 17.6577 14.8085 17.7577 14.8085C17.8576 14.8085 17.9576 14.7704 18.0339 14.6941L18.4073 14.3206L19.1054 15.0187C19.1784 15.0918 19.2186 15.1889 19.2186 15.2922C19.2186 15.3954 19.1784 15.4926 19.1054 15.5656L15.5647 19.1064C15.414 19.2572 15.1685 19.2572 15.0177 19.1064L13.6096 17.6983C13.457 17.5457 13.2098 17.5457 13.0572 17.6983C12.9046 17.8508 12.9046 18.0982 13.0572 18.2507L14.4653 19.6588C14.693 19.8865 14.9921 20.0004 15.2912 20.0004C15.5903 20.0004 15.8894 19.8865 16.1171 19.6588L19.6579 16.118C19.8785 15.8974 20 15.6041 20 15.2921C20 14.9801 19.8785 14.6868 19.6579 14.4662ZM15.654 1.92957C15.7785 1.80504 15.9441 1.73644 16.1202 1.73644C16.2963 1.73644 16.4619 1.80504 16.5865 1.92957L18.0714 3.41449C18.3285 3.67156 18.3285 4.08988 18.0714 4.34695L16.9309 5.48737L14.5136 3.06999L15.654 1.92957ZM0.89449 4.98315C0.821444 4.91011 0.781249 4.813 0.781249 4.70972C0.781249 4.60644 0.821444 4.50929 0.89453 4.43624L4.4353 0.895467C4.58601 0.744725 4.83148 0.744647 4.98226 0.895467L5.67807 1.59129L5.3046 1.96472C5.15206 2.11726 5.15206 2.3646 5.3046 2.51714C5.38089 2.59343 5.48085 2.63156 5.58081 2.63156C5.68077 2.63156 5.78073 2.59339 5.85702 2.51714L6.2305 2.14371L7.20065 3.1139L6.08475 4.2298C5.93222 4.38234 5.93222 4.62968 6.08475 4.78222C6.16104 4.85851 6.261 4.89663 6.36096 4.89663C6.46093 4.89663 6.56089 4.85847 6.63718 4.78222L7.75303 3.66632L8.72264 4.63593L8.3492 5.00937C8.19666 5.1619 8.19666 5.40925 8.3492 5.56183C8.42549 5.63811 8.52545 5.67624 8.62541 5.67624C8.72537 5.67624 8.82533 5.63811 8.90162 5.56183L9.27506 5.18839L10.2826 6.19593L6.19499 10.2837L0.89449 4.98315ZM2.13886 17.862L2.67382 16.6959L3.30495 17.3271L2.13886 17.862ZM4.06238 16.9796L3.02128 15.9385L3.98292 13.8424L6.1585 16.018L4.06238 16.9796ZM6.83182 15.5865L4.41448 13.1691L13.9611 3.62242L15.2595 4.92085L12.0401 8.14034C11.8876 8.29288 11.8876 8.54022 12.0401 8.69276C12.1164 8.76905 12.2163 8.80717 12.3163 8.80717C12.4163 8.80717 12.5162 8.76901 12.5925 8.69276L15.812 5.47331L16.3784 6.03983L6.83182 15.5865Z" fill="#B67BFF"/>
</svg>
